<svg preserveAspectRatio="none" width="100%" height="100%" overflow="visible" style="display: block;" viewBox="0 0 79.0001 35.6156" fill="none" xmlns="http://www.w3.org/2000/svg">
<g id="Group">
<path id="Vector" d="M33.9615 34.9353H43.6781V23.6291L52.2347 34.9353H63.0326L53.4448 22.283C55.149 21.4524 60.0181 18.7601 60.0181 11.4565C60.0181 7.51831 57.6766 4.54676 55.6717 2.97864C53.6668 1.41053 51.1464 0.673011 47.1008 0.673011H33.9687V34.9353H33.9615ZM43.671 9.19383H45.8477C49.1916 9.19383 49.9721 11.3491 49.9721 12.595C49.9721 13.8409 49.3778 16.0606 45.8477 16.0606H43.671V9.19383Z" fill="var(--fill-0, white)"/>
<path id="Vector_2" d="M62.0444 9.01482H54.7408V0.673011H79.0001V9.01482H71.6536V34.9353H62.0444V9.01482Z" fill="var(--fill-0, white)"/>
<path id="Vector_3" d="M31.4698 5.13397C27.9182 1.71132 23.5576 0 18.4021 0C13.2467 0 8.886 1.71132 5.33446 5.13397C1.78293 8.55662 0 12.7812 0 17.8078C0 22.8344 1.77577 27.0661 5.33446 30.4816C8.886 33.9043 13.2467 35.6156 18.4021 35.6156C23.5576 35.6156 27.9182 33.9043 31.4698 30.4816C32.9806 29.0209 34.1764 27.417 35.0428 25.6699V9.94573C34.1764 8.19144 32.9806 6.58752 31.4698 5.13397ZM12.4948 11.8289C13.5331 10.7978 14.7861 10.0675 16.1323 9.66648C15.3303 10.5758 14.6572 11.5998 14.1489 12.7096H11.7143C11.9506 12.4017 12.2156 12.1082 12.4948 11.8289ZM11.1129 13.5903H13.7765C13.3326 14.7933 13.0748 16.0893 13.0318 17.4355H9.93857C10.0173 16.0678 10.4183 14.7503 11.1129 13.5903ZM9.93857 18.3162H13.0462C13.1034 19.691 13.3755 21.0085 13.8481 22.2329H11.1057C10.4255 21.0729 10.003 19.7411 9.94573 18.3162H9.93857ZM11.6929 23.1136H14.2133C14.7432 24.2378 15.4449 25.2689 16.2755 26.1711C14.4281 25.677 12.817 24.5815 11.6857 23.1136H11.6929ZM18.1658 26.4575C18.0513 26.4575 17.9367 26.4503 17.8221 26.436C16.7624 25.5052 15.8745 24.381 15.2158 23.1136H18.1658V26.4575ZM18.1658 22.2329H14.8076C14.2992 21.0156 13.9985 19.6981 13.9412 18.3162H18.1658V22.2329ZM18.1658 17.4355H13.934C13.977 16.0822 14.2634 14.7861 14.7432 13.5903H18.1658V17.4355ZM18.1658 12.7096H15.137C15.7743 11.4422 16.6335 10.3109 17.6718 9.36574C17.8364 9.35142 18.0011 9.3371 18.1658 9.32994V12.7096ZM24.7533 11.8289C25.0326 12.1082 25.2975 12.4017 25.5338 12.7096H23.0921C22.5838 11.5926 21.9107 10.5687 21.1016 9.65932C22.4549 10.0531 23.7008 10.7907 24.7462 11.8217L24.7533 11.8289ZM19.0609 9.32994C19.2327 9.32994 19.3974 9.34426 19.5692 9.36574C20.6075 10.3109 21.4667 11.4422 22.104 12.7096H19.0609V9.32994ZM19.0609 13.5903H22.4978C22.9776 14.7861 23.2568 16.0822 23.307 17.4355H19.0609V13.5903ZM19.0609 18.3162H23.2998C23.2425 19.6981 22.9418 21.0156 22.4334 22.2329H19.0609V18.3162ZM19.4189 26.436C19.3043 26.4432 19.1826 26.4503 19.0609 26.4575V23.1136H22.0252C21.3665 24.381 20.4786 25.5052 19.4189 26.436ZM20.9512 26.1711C21.7818 25.2617 22.4835 24.2378 23.0205 23.1136H25.5553C24.4168 24.5887 22.8129 25.6842 20.9584 26.1711H20.9512ZM26.8227 20.8008C26.6437 21.302 26.4217 21.7818 26.1496 22.2329H23.4C23.8726 21.0085 24.1447 19.691 24.202 18.3162H27.2666C27.2308 19.1969 27.0805 20.0275 26.8227 20.8008ZM24.202 17.4355C24.159 16.0893 23.9013 14.7933 23.4573 13.5903H26.1353C26.5649 14.3207 26.8871 15.1083 27.0876 15.9246C27.1879 16.4115 27.2451 16.9128 27.2666 17.4355H24.202Z" fill="var(--fill-0, white)"/>
</g>
</svg>
